<svg width="29" height="13" viewBox="0 0 29 13" fill="none" xmlns="http://www.w3.org/2000/svg">
<path d="M5.46199 3.64C6.51799 3.64 7.33999 3.904 7.92799 4.432C8.51599 4.96 8.80999 5.824 8.80999 7.024V13H6.12799V7.582C6.12799 6.43 5.55199 5.854 4.39999 5.854C4.12399 5.854 3.84199 5.896 3.55399 5.98C3.26599 6.064 3.04399 6.166 2.88799 6.286L2.85199 13H0.187988V0.291999H2.88799V4.306C3.71599 3.862 4.57399 3.64 5.46199 3.64Z" fill="white"/>
<path d="M11.0659 10.462H13.6759V13H11.0659V10.462Z" fill="white"/>
<path d="M16.4111 13V-0.0078125H18.9687L22.5723 10.0557L26.2812 -0.0078125H28.5664V13H26.8437V2.41797L23.2578 12.1299H21.4736L17.9932 2.3916V13H16.4111Z" fill="white"/>
</svg>
